# xmcd
#
# Track frame offsets: 
#        150
#        3727
#        17279
#        32230
#        47149
#        59805
#        69937
#        81316
#        96768
#        113706
#        130017
#
# Disc length: 1775 seconds
#
# Revision: 0
# Processed by: cddbd v1.5.2PL0 Copyright (c) Steve Scherf et al.
# Submitted via: ExactAudioCopyFreeDBPlugin 1.0
#
DISCID=8c06ed0b
DTITLE=Styles P - The World's Most Hardest MC Project
DYEAR=2010
DGENRE=Rap
TTITLE0=Intro
TTITLE1=Araab Styles
TTITLE2=I Know
TTITLE3=Like That
TTITLE4=Empire State High Feat. Sheek Louch
TTITLE5=Pop Out
TTITLE6=Hoody Season
TTITLE7=Monopolizing Feat. Bucky and Large Amount
TTITLE8=Shooter Feat. Snyp and A.P.
TTITLE9=Murda Mommy
TTITLE10=Outro
EXTD=
EXTT0=
EXTT1=
EXTT2=
EXTT3=
EXTT4=
EXTT5=
EXTT6=
EXTT7=
EXTT8=
EXTT9=
EXTT10=
PLAYORDER=
